<svg xmlns="http://www.w3.org/2000/svg" viewBox="0 0 64 64">
  <defs>
    <linearGradient id="bg" x1="12" y1="8" x2="52" y2="56" gradientUnits="userSpaceOnUse">
      <stop offset="0" stop-color="#12324a"/>
      <stop offset="1" stop-color="#1b5c5a"/>
    </linearGradient>
    <linearGradient id="accent" x1="18" y1="44" x2="50" y2="18" gradientUnits="userSpaceOnUse">
      <stop offset="0" stop-color="#f6b93b"/>
      <stop offset="1" stop-color="#f9e27d"/>
    </linearGradient>
  </defs>
  <rect x="4" y="4" width="56" height="56" rx="16" fill="url(#bg)"/>
  <path d="M18 44h28" stroke="rgba(255,255,255,0.16)" stroke-width="2" stroke-linecap="round"/>
  <path d="M22 39V28" stroke="#c7d9e6" stroke-width="3" stroke-linecap="round"/>
  <path d="M32 39V21" stroke="#c7d9e6" stroke-width="3" stroke-linecap="round"/>
  <path d="M42 39V25" stroke="#c7d9e6" stroke-width="3" stroke-linecap="round"/>
  <rect x="19" y="31" width="6" height="8" rx="2" fill="#d9eef7"/>
  <rect x="29" y="24" width="6" height="15" rx="2" fill="#d9eef7"/>
  <rect x="39" y="28" width="6" height="11" rx="2" fill="#d9eef7"/>
  <path d="M18 40c8-1 14-4 19-11 3 2 5 4 7 6 4-5 7-9 13-12" fill="none" stroke="url(#accent)" stroke-width="4" stroke-linecap="round" stroke-linejoin="round"/>
  <path d="M52 19l5 4-6 1" fill="none" stroke="#f9e27d" stroke-width="3" stroke-linecap="round" stroke-linejoin="round"/>
</svg>
